<svg xmlns="http://www.w3.org/2000/svg" xmlns:xlink="http://www.w3.org/1999/xlink" width="500" zoomAndPan="magnify" viewBox="0 0 375 374.999991" height="500" preserveAspectRatio="xMidYMid meet" version="1.0"><defs><g><g id="id1"/></g><clipPath id="id2"><path d="M 1.328125 1.746094 L 372.917969 1.746094 L 372.917969 121.824219 L 1.328125 121.824219 Z M 1.328125 1.746094 " clip-rule="nonzero"/></clipPath></defs><rect x="-37.5" width="450" fill="rgb(100%, 100%, 100%)" y="-37.499999" height="449.999989" fill-opacity="1"/><rect x="-37.5" width="450" fill="rgb(100%, 100%, 100%)" y="-37.499999" height="449.999989" fill-opacity="1"/><rect x="-37.5" width="450" fill="rgb(100%, 100%, 100%)" y="-37.499999" height="449.999989" fill-opacity="1"/><g clip-path="url(#id2)"><path fill="rgb(0%, 0%, 0%)" d="M 187.195312 0.480469 L 250.183594 41.535156 L 372.917969 121.410156 L 372.917969 451.128906 L 1.328125 451.128906 L 1.328125 121.480469 L 124.0625 41.605469 Z M 362.09375 127.316406 L 244.269531 50.609375 L 187.195312 13.375 L 129.90625 50.609375 L 12.078125 127.316406 L 12.078125 440.328125 L 362.023438 440.328125 L 362.023438 127.316406 Z M 362.09375 127.316406 " fill-opacity="1" fill-rule="nonzero"/></g><g fill="rgb(0%, 0%, 0%)" fill-opacity="1"><g transform="translate(20.443123, 365.774205)"><g><path d="M 5.019531 -11.628906 L 5.019531 -21.21875 L 10.488281 -21.21875 C 11.90625 -21.21875 13.046875 -20.765625 13.914062 -19.867188 C 14.746094 -18.96875 15.195312 -17.859375 15.195312 -16.476562 C 15.195312 -15.089844 14.746094 -13.949219 13.84375 -13.015625 C 12.945312 -12.078125 11.835938 -11.628906 10.488281 -11.628906 Z M 17.617188 -16.441406 C 17.617188 -18.449219 16.855469 -20.179688 15.402344 -21.527344 C 13.984375 -22.84375 12.21875 -23.535156 10.140625 -23.535156 L 2.597656 -23.535156 L 2.597656 0 L 5.019531 0 L 5.019531 -9.308594 L 7.820312 -9.308594 L 14.746094 0 L 17.996094 0 L 10.730469 -9.308594 C 12.5625 -9.414062 14.121094 -10.070312 15.402344 -11.285156 C 16.855469 -12.632812 17.617188 -14.363281 17.617188 -16.441406 Z M 17.617188 -16.441406 "/></g></g></g><g fill="rgb(0%, 0%, 0%)" fill-opacity="1"><g transform="translate(39.270221, 365.774205)"><g><path d="M 16.578125 0 L 16.578125 -2.25 L 5.019531 -2.25 L 5.019531 -10.625 L 16.234375 -10.625 L 16.234375 -12.910156 L 5.019531 -12.910156 L 5.019531 -21.285156 L 16.578125 -21.285156 L 16.578125 -23.535156 L 2.597656 -23.535156 L 2.597656 0 Z M 16.578125 0 "/></g></g></g><g fill="rgb(0%, 0%, 0%)" fill-opacity="1"><g transform="translate(58.44339, 365.774205)"><g><path d="M 6.402344 -8.652344 L 10.695312 -19.484375 L 14.953125 -8.652344 Z M 21.007812 0 L 10.695312 -25.164062 L 0.347656 0 L 2.976562 0 L 5.503906 -6.402344 L 15.851562 -6.402344 L 18.378906 0 Z M 21.007812 0 "/></g></g></g><g fill="rgb(0%, 0%, 0%)" fill-opacity="1"><g transform="translate(79.796895, 365.774205)"><g><path d="M 5.019531 -2.421875 L 5.019531 -23.535156 L 2.597656 -23.535156 L 2.597656 0 L 13.429688 0 L 13.429688 -2.421875 Z M 5.019531 -2.421875 "/></g></g></g><g fill="rgb(0%, 0%, 0%)" fill-opacity="1"><g transform="translate(93.917201, 365.774205)"><g/></g></g><g fill="rgb(0%, 0%, 0%)" fill-opacity="1"><g transform="translate(103.261533, 365.774205)"><g><path d="M 16.578125 0 L 16.578125 -2.25 L 5.019531 -2.25 L 5.019531 -10.625 L 16.234375 -10.625 L 16.234375 -12.910156 L 5.019531 -12.910156 L 5.019531 -21.285156 L 16.578125 -21.285156 L 16.578125 -23.535156 L 2.597656 -23.535156 L 2.597656 0 Z M 16.578125 0 "/></g></g></g><g fill="rgb(0%, 0%, 0%)" fill-opacity="1"><g transform="translate(122.434702, 365.774205)"><g><path d="M 9.101562 -11.074219 C 12.148438 -10.347656 14.226562 -9.554688 15.332031 -8.652344 C 16.09375 -8.03125 16.476562 -7.234375 16.476562 -6.265625 C 16.476562 -5.296875 16.265625 -4.5 15.851562 -3.945312 C 14.8125 -2.492188 12.945312 -1.765625 10.3125 -1.765625 C 6.644531 -1.765625 4.570312 -3.011719 4.117188 -5.503906 L 1.28125 -5.503906 C 2.109375 -1.523438 5.121094 0.449219 10.3125 0.449219 C 12.632812 0.449219 14.570312 -0.0351562 16.128906 -1.074219 C 17.996094 -2.285156 18.96875 -4.085938 18.96875 -6.4375 C 18.96875 -8.375 18.207031 -9.863281 16.683594 -10.902344 C 15.609375 -11.664062 13.878906 -12.355469 11.492188 -12.980469 C 9.066406 -13.601562 7.511719 -14.121094 6.785156 -14.503906 C 5.191406 -15.296875 4.394531 -16.40625 4.429688 -17.859375 C 4.429688 -18.621094 4.570312 -19.277344 4.914062 -19.761719 C 5.816406 -21.113281 7.40625 -21.804688 9.691406 -21.804688 C 12.910156 -21.804688 14.746094 -20.765625 15.230469 -18.757812 L 17.859375 -18.757812 C 16.996094 -22.152344 14.261719 -23.882812 9.691406 -23.882812 C 7.613281 -23.882812 5.78125 -23.328125 4.257812 -22.21875 C 2.699219 -21.113281 1.902344 -19.484375 1.902344 -17.269531 C 1.902344 -14.261719 4.328125 -12.183594 9.101562 -11.074219 Z M 9.101562 -11.074219 "/></g></g></g><g fill="rgb(0%, 0%, 0%)" fill-opacity="1"><g transform="translate(142.300035, 365.774205)"><g><path d="M 0.691406 -21.355469 L 6.402344 -21.355469 L 6.402344 -0.0703125 L 8.824219 -0.0703125 L 8.824219 -21.355469 L 14.535156 -21.355469 L 14.535156 -23.605469 L 0.691406 -23.605469 Z M 0.691406 -21.355469 "/></g></g></g><g fill="rgb(0%, 0%, 0%)" fill-opacity="1"><g transform="translate(157.527828, 365.774205)"><g><path d="M 6.402344 -8.652344 L 10.695312 -19.484375 L 14.953125 -8.652344 Z M 21.007812 0 L 10.695312 -25.164062 L 0.347656 0 L 2.976562 0 L 5.503906 -6.402344 L 15.851562 -6.402344 L 18.378906 0 Z M 21.007812 0 "/></g></g></g><g fill="rgb(0%, 0%, 0%)" fill-opacity="1"><g transform="translate(178.881334, 365.774205)"><g><path d="M 0.691406 -21.355469 L 6.402344 -21.355469 L 6.402344 -0.0703125 L 8.824219 -0.0703125 L 8.824219 -21.355469 L 14.535156 -21.355469 L 14.535156 -23.605469 L 0.691406 -23.605469 Z M 0.691406 -21.355469 "/></g></g></g><g fill="rgb(0%, 0%, 0%)" fill-opacity="1"><g transform="translate(194.109127, 365.774205)"><g><path d="M 16.578125 0 L 16.578125 -2.25 L 5.019531 -2.25 L 5.019531 -10.625 L 16.234375 -10.625 L 16.234375 -12.910156 L 5.019531 -12.910156 L 5.019531 -21.285156 L 16.578125 -21.285156 L 16.578125 -23.535156 L 2.597656 -23.535156 L 2.597656 0 Z M 16.578125 0 "/></g></g></g><g fill="rgb(0%, 0%, 0%)" fill-opacity="1"><g transform="translate(213.282296, 365.774205)"><g/></g></g><g fill="rgb(0%, 0%, 0%)" fill-opacity="1"><g transform="translate(222.626629, 365.774205)"><g><path d="M 9.101562 -11.074219 C 12.148438 -10.347656 14.226562 -9.554688 15.332031 -8.652344 C 16.09375 -8.03125 16.476562 -7.234375 16.476562 -6.265625 C 16.476562 -5.296875 16.265625 -4.5 15.851562 -3.945312 C 14.8125 -2.492188 12.945312 -1.765625 10.3125 -1.765625 C 6.644531 -1.765625 4.570312 -3.011719 4.117188 -5.503906 L 1.28125 -5.503906 C 2.109375 -1.523438 5.121094 0.449219 10.3125 0.449219 C 12.632812 0.449219 14.570312 -0.0351562 16.128906 -1.074219 C 17.996094 -2.285156 18.96875 -4.085938 18.96875 -6.4375 C 18.96875 -8.375 18.207031 -9.863281 16.683594 -10.902344 C 15.609375 -11.664062 13.878906 -12.355469 11.492188 -12.980469 C 9.066406 -13.601562 7.511719 -14.121094 6.785156 -14.503906 C 5.191406 -15.296875 4.394531 -16.40625 4.429688 -17.859375 C 4.429688 -18.621094 4.570312 -19.277344 4.914062 -19.761719 C 5.816406 -21.113281 7.40625 -21.804688 9.691406 -21.804688 C 12.910156 -21.804688 14.746094 -20.765625 15.230469 -18.757812 L 17.859375 -18.757812 C 16.996094 -22.152344 14.261719 -23.882812 9.691406 -23.882812 C 7.613281 -23.882812 5.78125 -23.328125 4.257812 -22.21875 C 2.699219 -21.113281 1.902344 -19.484375 1.902344 -17.269531 C 1.902344 -14.261719 4.328125 -12.183594 9.101562 -11.074219 Z M 9.101562 -11.074219 "/></g></g></g><g fill="rgb(0%, 0%, 0%)" fill-opacity="1"><g transform="translate(242.491962, 365.774205)"><g><path d="M 16.578125 0 L 16.578125 -2.25 L 5.019531 -2.25 L 5.019531 -10.625 L 16.234375 -10.625 L 16.234375 -12.910156 L 5.019531 -12.910156 L 5.019531 -21.285156 L 16.578125 -21.285156 L 16.578125 -23.535156 L 2.597656 -23.535156 L 2.597656 0 Z M 16.578125 0 "/></g></g></g><g fill="rgb(0%, 0%, 0%)" fill-opacity="1"><g transform="translate(261.66513, 365.774205)"><g><path d="M 5.019531 -11.628906 L 5.019531 -21.21875 L 10.488281 -21.21875 C 11.90625 -21.21875 13.046875 -20.765625 13.914062 -19.867188 C 14.746094 -18.96875 15.195312 -17.859375 15.195312 -16.476562 C 15.195312 -15.089844 14.746094 -13.949219 13.84375 -13.015625 C 12.945312 -12.078125 11.835938 -11.628906 10.488281 -11.628906 Z M 17.617188 -16.441406 C 17.617188 -18.449219 16.855469 -20.179688 15.402344 -21.527344 C 13.984375 -22.84375 12.21875 -23.535156 10.140625 -23.535156 L 2.597656 -23.535156 L 2.597656 0 L 5.019531 0 L 5.019531 -9.308594 L 7.820312 -9.308594 L 14.746094 0 L 17.996094 0 L 10.730469 -9.308594 C 12.5625 -9.414062 14.121094 -10.070312 15.402344 -11.285156 C 16.855469 -12.632812 17.617188 -14.363281 17.617188 -16.441406 Z M 17.617188 -16.441406 "/></g></g></g><g fill="rgb(0%, 0%, 0%)" fill-opacity="1"><g transform="translate(280.492229, 365.774205)"><g><path d="M 11.042969 1.417969 L 21.703125 -23.535156 L 19.070312 -23.535156 L 11.042969 -4.570312 L 2.976562 -23.535156 L 0.347656 -23.535156 Z M 11.042969 1.417969 "/></g></g></g><g fill="rgb(0%, 0%, 0%)" fill-opacity="1"><g transform="translate(302.537923, 365.774205)"><g><path d="M 5.019531 0 L 5.019531 -23.535156 L 2.597656 -23.535156 L 2.597656 0 Z M 5.019531 0 "/></g></g></g><g fill="rgb(0%, 0%, 0%)" fill-opacity="1"><g transform="translate(310.151808, 365.774205)"><g><path d="M 24.195312 -7.199219 L 21.527344 -7.199219 C 20.699219 -5.675781 19.554688 -4.429688 18.101562 -3.53125 C 16.648438 -2.597656 15.019531 -2.144531 13.289062 -2.144531 C 10.695312 -2.144531 8.480469 -3.082031 6.644531 -5.019531 C 4.84375 -6.851562 3.980469 -9.101562 3.980469 -11.734375 C 3.980469 -14.363281 4.84375 -16.613281 6.644531 -18.484375 C 7.476562 -19.347656 8.480469 -20.039062 9.621094 -20.558594 C 10.730469 -21.078125 11.835938 -21.355469 12.945312 -21.355469 C 14.019531 -21.355469 14.953125 -21.21875 15.78125 -20.972656 C 18.308594 -20.214844 20.214844 -18.691406 21.492188 -16.371094 L 24.160156 -16.371094 C 23.257812 -18.585938 21.839844 -20.386719 19.867188 -21.769531 C 17.859375 -23.15625 15.679688 -23.847656 13.289062 -23.847656 C 10.003906 -23.847656 7.234375 -22.636719 4.949219 -20.246094 C 3.875 -19.140625 3.046875 -17.824219 2.457031 -16.371094 C 1.835938 -14.917969 1.558594 -13.359375 1.558594 -11.734375 C 1.558594 -8.410156 2.664062 -5.605469 4.949219 -3.253906 C 7.234375 -0.832031 10.003906 0.347656 13.289062 0.347656 C 15.679688 0.347656 17.859375 -0.347656 19.902344 -1.730469 C 21.875 -3.113281 23.292969 -4.914062 24.195312 -7.199219 Z M 24.195312 -7.199219 "/></g></g></g><g fill="rgb(0%, 0%, 0%)" fill-opacity="1"><g transform="translate(335.381484, 365.774205)"><g><path d="M 16.578125 0 L 16.578125 -2.25 L 5.019531 -2.25 L 5.019531 -10.625 L 16.234375 -10.625 L 16.234375 -12.910156 L 5.019531 -12.910156 L 5.019531 -21.285156 L 16.578125 -21.285156 L 16.578125 -23.535156 L 2.597656 -23.535156 L 2.597656 0 Z M 16.578125 0 "/></g></g></g><g fill="rgb(0%, 0%, 0%)" fill-opacity="1"><g transform="translate(46.88818, 205.575883)"><g><path d="M 5.015625 0.25 C 4.515625 0.25 4.140625 0.0703125 3.890625 -0.28125 C 3.648438 -0.644531 3.53125 -1.070312 3.53125 -1.5625 C 3.582031 -2.382812 3.742188 -2.875 4.015625 -3.03125 C 4.296875 -3.195312 4.820312 -3.28125 5.59375 -3.28125 C 7.175781 -3.28125 8.347656 -3.566406 9.109375 -4.140625 C 9.878906 -4.722656 10.359375 -5.4375 10.546875 -6.28125 C 10.742188 -7.132812 10.867188 -8.242188 10.921875 -9.609375 L 10.921875 -42.15625 C 10.867188 -43.582031 10.742188 -44.703125 10.546875 -45.515625 C 10.359375 -46.335938 9.878906 -47.050781 9.109375 -47.65625 C 8.347656 -48.257812 7.175781 -48.5625 5.59375 -48.5625 L 5.09375 -48.5625 C 4.539062 -48.5625 4.15625 -48.65625 3.9375 -48.84375 C 3.71875 -49.039062 3.582031 -49.523438 3.53125 -50.296875 C 3.53125 -50.785156 3.648438 -51.207031 3.890625 -51.5625 C 4.140625 -51.914062 4.515625 -52.09375 5.015625 -52.09375 C 8.578125 -51.925781 11.835938 -51.84375 14.796875 -51.84375 L 28.921875 -51.84375 C 33.140625 -51.789062 36.660156 -51.117188 39.484375 -49.828125 C 42.304688 -48.546875 44.375 -46.90625 45.6875 -44.90625 C 47 -42.90625 47.65625 -40.753906 47.65625 -38.453125 C 47.65625 -35.441406 46.460938 -32.675781 44.078125 -30.15625 C 41.703125 -27.632812 38.457031 -25.828125 34.34375 -24.734375 L 35.75 -22.515625 C 38.050781 -18.785156 40.128906 -15.59375 41.984375 -12.9375 C 43.847656 -10.28125 45.878906 -7.800781 48.078125 -5.5 C 49.609375 -4.238281 51.25 -3.5 53 -3.28125 C 53.113281 -3.28125 53.359375 -3.265625 53.734375 -3.234375 C 54.117188 -3.210938 54.4375 -3.066406 54.6875 -2.796875 C 54.9375 -2.523438 55.0625 -2.113281 55.0625 -1.5625 C 55.0625 -1.070312 54.9375 -0.644531 54.6875 -0.28125 C 54.4375 0.0703125 54.066406 0.25 53.578125 0.25 L 51.4375 0.171875 C 49.03125 0.0546875 47.28125 0 46.1875 0 C 43.988281 -0.4375 42.109375 -1.21875 40.546875 -2.34375 C 38.984375 -3.46875 37.4375 -5.070312 35.90625 -7.15625 C 34.320312 -9.226562 32.101562 -12.625 29.25 -17.34375 L 27.78125 -19.71875 C 26.957031 -20.976562 26.160156 -21.84375 25.390625 -22.3125 C 24.617188 -22.78125 23.304688 -23.015625 21.453125 -23.015625 L 19.0625 -23.015625 L 19.0625 -9.609375 C 19.113281 -8.242188 19.234375 -7.132812 19.421875 -6.28125 C 19.617188 -5.4375 20.097656 -4.722656 20.859375 -4.140625 C 21.628906 -3.566406 22.8125 -3.28125 24.40625 -3.28125 L 24.890625 -3.28125 C 25.390625 -3.28125 25.757812 -3.1875 26 -3 C 26.25 -2.8125 26.398438 -2.332031 26.453125 -1.5625 C 26.453125 -1.070312 26.328125 -0.644531 26.078125 -0.28125 C 25.835938 0.0703125 25.472656 0.25 24.984375 0.25 C 21.472656 0.0820312 18.046875 0 14.703125 0 C 11.804688 0 8.578125 0.0820312 5.015625 0.25 Z M 26.296875 -26.21875 C 34.453125 -26.21875 38.53125 -30.050781 38.53125 -37.71875 C 38.53125 -40.84375 37.460938 -43.472656 35.328125 -45.609375 C 33.191406 -47.742188 29.6875 -48.8125 24.8125 -48.8125 C 23.226562 -48.8125 22.023438 -48.617188 21.203125 -48.234375 C 20.378906 -47.847656 19.816406 -47.1875 19.515625 -46.25 C 19.210938 -45.320312 19.0625 -43.898438 19.0625 -41.984375 L 19.0625 -26.21875 Z M 26.296875 -26.21875 "/></g></g></g><g fill="rgb(0%, 0%, 0%)" fill-opacity="1"><g transform="translate(106.117955, 205.575883)"><g><path d="M 4.9375 0.25 C 4.488281 0.25 4.140625 0.0703125 3.890625 -0.28125 C 3.648438 -0.644531 3.53125 -1.070312 3.53125 -1.5625 C 3.582031 -2.382812 3.742188 -2.875 4.015625 -3.03125 C 4.296875 -3.195312 4.820312 -3.28125 5.59375 -3.28125 C 7.175781 -3.28125 8.347656 -3.566406 9.109375 -4.140625 C 9.878906 -4.722656 10.359375 -5.4375 10.546875 -6.28125 C 10.742188 -7.132812 10.867188 -8.242188 10.921875 -9.609375 L 10.921875 -42.234375 C 10.867188 -43.609375 10.742188 -44.71875 10.546875 -45.5625 C 10.359375 -46.414062 9.878906 -47.128906 9.109375 -47.703125 C 8.347656 -48.273438 7.175781 -48.5625 5.59375 -48.5625 L 5.09375 -48.5625 C 4.539062 -48.5625 4.15625 -48.65625 3.9375 -48.84375 C 3.71875 -49.039062 3.582031 -49.523438 3.53125 -50.296875 C 3.53125 -50.785156 3.648438 -51.207031 3.890625 -51.5625 C 4.140625 -51.914062 4.488281 -52.09375 4.9375 -52.09375 C 8.550781 -51.925781 11.804688 -51.84375 14.703125 -51.84375 L 40.515625 -51.84375 C 41.929688 -51.84375 42.640625 -51.1875 42.640625 -49.875 L 42.890625 -38.375 C 42.890625 -37.882812 42.644531 -37.488281 42.15625 -37.1875 C 41.664062 -36.882812 41.171875 -36.734375 40.671875 -36.734375 C 40.015625 -36.734375 39.4375 -36.851562 38.9375 -37.09375 C 38.445312 -37.34375 38.175781 -37.710938 38.125 -38.203125 C 37.6875 -40.890625 37.207031 -42.929688 36.6875 -44.328125 C 36.164062 -45.722656 35.398438 -46.765625 34.390625 -47.453125 C 33.378906 -48.140625 31.941406 -48.507812 30.078125 -48.5625 L 19.0625 -48.5625 L 19.0625 -27.6875 L 33.9375 -27.6875 C 34.320312 -27.632812 34.625 -27.429688 34.84375 -27.078125 C 35.0625 -26.722656 35.171875 -26.296875 35.171875 -25.796875 C 35.171875 -25.359375 35.0625 -24.972656 34.84375 -24.640625 C 34.625 -24.316406 34.320312 -24.15625 33.9375 -24.15625 L 19.0625 -24.15625 L 19.0625 -8.625 C 19.175781 -7.476562 19.3125 -6.5625 19.46875 -5.875 C 19.632812 -5.1875 20.128906 -4.566406 20.953125 -4.015625 C 21.773438 -3.472656 23.0625 -3.226562 24.8125 -3.28125 L 32.375 -3.28125 C 34.289062 -3.34375 35.738281 -3.660156 36.71875 -4.234375 C 37.707031 -4.804688 38.488281 -5.691406 39.0625 -6.890625 C 39.644531 -8.097656 40.347656 -10.070312 41.171875 -12.8125 C 41.554688 -13.800781 42.488281 -14.1875 43.96875 -13.96875 C 44.507812 -13.863281 44.984375 -13.644531 45.390625 -13.3125 C 45.804688 -12.976562 45.988281 -12.566406 45.9375 -12.078125 L 44.296875 -1.71875 C 44.128906 -1.007812 43.878906 -0.546875 43.546875 -0.328125 C 43.222656 -0.109375 42.675781 0 41.90625 0 L 14.796875 0 C 11.835938 0 8.550781 0.0820312 4.9375 0.25 Z M 4.9375 0.25 "/></g></g></g><g fill="rgb(0%, 0%, 0%)" fill-opacity="1"><g transform="translate(159.022354, 205.575883)"><g><path d="M 5.09375 0.25 C 4.601562 0.25 4.234375 0.0703125 3.984375 -0.28125 C 3.734375 -0.644531 3.609375 -1.070312 3.609375 -1.5625 C 3.671875 -2.382812 3.835938 -2.875 4.109375 -3.03125 C 4.378906 -3.195312 4.898438 -3.28125 5.671875 -3.28125 C 7.253906 -3.28125 8.414062 -3.566406 9.15625 -4.140625 C 9.894531 -4.722656 10.347656 -5.410156 10.515625 -6.203125 C 10.679688 -6.992188 10.789062 -8.128906 10.84375 -9.609375 L 11.015625 -42.234375 C 11.015625 -43.878906 10.832031 -45.125 10.46875 -45.96875 C 10.113281 -46.820312 9.550781 -47.441406 8.78125 -47.828125 C 8.019531 -48.210938 6.925781 -48.539062 5.5 -48.8125 C 4.570312 -48.976562 4 -49.140625 3.78125 -49.296875 C 3.5625 -49.460938 3.453125 -49.929688 3.453125 -50.703125 C 3.453125 -51.359375 3.628906 -51.796875 3.984375 -52.015625 C 4.335938 -52.234375 4.898438 -52.34375 5.671875 -52.34375 C 9.066406 -52.34375 11.75 -52.109375 13.71875 -51.640625 C 15.695312 -51.179688 17.4375 -50.347656 18.9375 -49.140625 C 20.445312 -47.929688 22.101562 -46.097656 23.90625 -43.640625 L 46.421875 -14.046875 L 46.671875 -14.046875 L 46.515625 -42.234375 C 46.453125 -43.710938 46.335938 -44.847656 46.171875 -45.640625 C 46.015625 -46.441406 45.566406 -47.128906 44.828125 -47.703125 C 44.085938 -48.273438 42.921875 -48.5625 41.328125 -48.5625 L 40.84375 -48.5625 C 40.289062 -48.5625 39.890625 -48.65625 39.640625 -48.84375 C 39.398438 -49.039062 39.253906 -49.523438 39.203125 -50.296875 C 39.203125 -50.785156 39.335938 -51.207031 39.609375 -51.5625 C 39.878906 -51.914062 40.234375 -52.09375 40.671875 -52.09375 C 44.179688 -51.925781 46.8125 -51.84375 48.5625 -51.84375 C 49.601562 -51.84375 51.601562 -51.898438 54.5625 -52.015625 L 56.28125 -52.09375 C 56.78125 -52.09375 57.148438 -51.914062 57.390625 -51.5625 C 57.640625 -51.207031 57.765625 -50.785156 57.765625 -50.296875 C 57.710938 -49.472656 57.546875 -48.976562 57.265625 -48.8125 C 56.992188 -48.644531 56.476562 -48.5625 55.71875 -48.5625 C 54.125 -48.5625 52.957031 -48.273438 52.21875 -47.703125 C 51.476562 -47.128906 51.023438 -46.441406 50.859375 -45.640625 C 50.703125 -44.847656 50.59375 -43.710938 50.53125 -42.234375 L 50.375 -0.828125 C 50.320312 -0.109375 49.632812 0.25 48.3125 0.25 C 47.269531 0.25 46.476562 -0.109375 45.9375 -0.828125 L 14.953125 -42.234375 L 14.703125 -42.234375 L 14.875 -9.609375 C 14.925781 -8.128906 15.035156 -6.992188 15.203125 -6.203125 C 15.367188 -5.410156 15.820312 -4.722656 16.5625 -4.140625 C 17.300781 -3.566406 18.460938 -3.28125 20.046875 -3.28125 L 20.546875 -3.28125 C 21.085938 -3.28125 21.484375 -3.1875 21.734375 -3 C 21.984375 -2.8125 22.132812 -2.332031 22.1875 -1.5625 C 22.1875 -1.070312 22.0625 -0.644531 21.8125 -0.28125 C 21.570312 0.0703125 21.203125 0.25 20.703125 0.25 C 17.203125 0.0820312 14.546875 0 12.734375 0 C 11.640625 0 9.722656 0.0546875 6.984375 0.171875 Z M 5.09375 0.25 "/></g></g></g><g fill="rgb(0%, 0%, 0%)" fill-opacity="1"><g transform="translate(223.673865, 205.575883)"><g><path d="M 14.703125 0.25 C 14.210938 0.25 13.84375 0.0703125 13.59375 -0.28125 C 13.351562 -0.644531 13.234375 -1.070312 13.234375 -1.5625 C 13.285156 -2.382812 13.445312 -2.875 13.71875 -3.03125 C 14 -3.195312 14.519531 -3.28125 15.28125 -3.28125 C 16.875 -3.28125 18.050781 -3.566406 18.8125 -4.140625 C 19.582031 -4.722656 20.0625 -5.4375 20.25 -6.28125 C 20.445312 -7.132812 20.570312 -8.242188 20.625 -9.609375 L 20.625 -48.8125 L 14.953125 -48.8125 C 13.085938 -48.757812 11.648438 -48.363281 10.640625 -47.625 C 9.628906 -46.882812 8.863281 -45.785156 8.34375 -44.328125 C 7.820312 -42.878906 7.367188 -40.8125 6.984375 -38.125 C 6.929688 -37.6875 6.601562 -37.332031 6 -37.0625 C 5.394531 -36.789062 4.765625 -36.65625 4.109375 -36.65625 C 3.617188 -36.65625 3.164062 -36.800781 2.75 -37.09375 C 2.34375 -37.394531 2.140625 -37.796875 2.140625 -38.296875 L 2.390625 -49.875 C 2.390625 -51.1875 3.128906 -51.84375 4.609375 -51.84375 L 44.78125 -51.84375 C 46.207031 -51.84375 46.921875 -51.1875 46.921875 -49.875 L 47.25 -38.296875 C 47.25 -37.796875 47.03125 -37.394531 46.59375 -37.09375 C 46.15625 -36.800781 45.6875 -36.65625 45.1875 -36.65625 C 44.53125 -36.65625 43.914062 -36.789062 43.34375 -37.0625 C 42.769531 -37.332031 42.457031 -37.6875 42.40625 -38.125 C 41.96875 -40.863281 41.5 -42.945312 41 -44.375 C 40.507812 -45.800781 39.742188 -46.882812 38.703125 -47.625 C 37.660156 -48.363281 36.207031 -48.757812 34.34375 -48.8125 L 28.765625 -48.8125 L 28.765625 -9.609375 C 28.816406 -8.242188 28.9375 -7.132812 29.125 -6.28125 C 29.320312 -5.4375 29.800781 -4.722656 30.5625 -4.140625 C 31.332031 -3.566406 32.507812 -3.28125 34.09375 -3.28125 L 34.59375 -3.28125 C 35.082031 -3.28125 35.453125 -3.1875 35.703125 -3 C 35.953125 -2.8125 36.101562 -2.332031 36.15625 -1.5625 C 36.15625 -1.070312 36.03125 -0.644531 35.78125 -0.28125 C 35.539062 0.0703125 35.171875 0.25 34.671875 0.25 C 31.171875 0.0820312 27.941406 0 24.984375 0 C 21.691406 0 18.265625 0.0820312 14.703125 0.25 Z M 14.703125 0.25 "/></g></g></g><g fill="rgb(0%, 0%, 0%)" fill-opacity="1"><g transform="translate(277.071135, 205.575883)"><g><path d="M 15.609375 0.25 C 15.117188 0.25 14.75 0.0703125 14.5 -0.28125 C 14.257812 -0.644531 14.140625 -1.070312 14.140625 -1.5625 C 14.191406 -2.382812 14.367188 -2.875 14.671875 -3.03125 C 14.972656 -3.195312 15.476562 -3.28125 16.1875 -3.28125 C 17.78125 -3.28125 18.957031 -3.566406 19.71875 -4.140625 C 20.488281 -4.722656 20.96875 -5.4375 21.15625 -6.28125 C 21.351562 -7.132812 21.476562 -8.242188 21.53125 -9.609375 L 21.53125 -19.890625 C 21.53125 -20.765625 20.171875 -23.953125 17.453125 -29.453125 C 14.742188 -34.960938 12.539062 -39.25 10.84375 -42.3125 C 9.75 -44.289062 8.546875 -45.757812 7.234375 -46.71875 C 5.921875 -47.675781 4.304688 -48.347656 2.390625 -48.734375 C 2.160156 -48.785156 1.828125 -48.851562 1.390625 -48.9375 C 0.953125 -49.019531 0.664062 -49.179688 0.53125 -49.421875 C 0.394531 -49.671875 0.328125 -50.070312 0.328125 -50.625 C 0.328125 -51.28125 0.503906 -51.71875 0.859375 -51.9375 C 1.210938 -52.15625 1.773438 -52.265625 2.546875 -52.265625 C 6.929688 -52.265625 10.351562 -51.675781 12.8125 -50.5 C 15.28125 -49.320312 17.472656 -47.0625 19.390625 -43.71875 C 20.328125 -41.90625 21.613281 -39.300781 23.25 -35.90625 C 25.664062 -31.082031 27.253906 -27.960938 28.015625 -26.546875 L 28.265625 -26.546875 L 37.390625 -44.53125 C 37.878906 -45.632812 38.125 -46.429688 38.125 -46.921875 C 38.125 -47.578125 37.78125 -48.015625 37.09375 -48.234375 C 36.414062 -48.453125 35.304688 -48.5625 33.765625 -48.5625 L 33.28125 -48.5625 C 32.726562 -48.5625 32.34375 -48.65625 32.125 -48.84375 C 31.90625 -49.039062 31.769531 -49.523438 31.71875 -50.296875 C 31.71875 -50.785156 31.835938 -51.207031 32.078125 -51.5625 C 32.328125 -51.914062 32.671875 -52.09375 33.109375 -52.09375 C 36.671875 -51.925781 39.660156 -51.84375 42.078125 -51.84375 C 44.097656 -51.84375 46.863281 -51.925781 50.375 -52.09375 C 50.863281 -52.09375 51.226562 -51.914062 51.46875 -51.5625 C 51.71875 -51.207031 51.84375 -50.785156 51.84375 -50.296875 C 51.789062 -49.523438 51.65625 -49.039062 51.4375 -48.84375 C 51.21875 -48.65625 50.835938 -48.5625 50.296875 -48.5625 C 48.046875 -48.5625 46.234375 -48.132812 44.859375 -47.28125 C 43.492188 -46.4375 42.265625 -45 41.171875 -42.96875 L 31.875 -25.46875 C 31.71875 -25.144531 31.390625 -24.472656 30.890625 -23.453125 C 30.398438 -22.441406 30.070312 -21.507812 29.90625 -20.65625 C 29.738281 -19.8125 29.65625 -18.785156 29.65625 -17.578125 L 29.65625 -9.609375 C 29.71875 -8.242188 29.84375 -7.132812 30.03125 -6.28125 C 30.226562 -5.4375 30.707031 -4.722656 31.46875 -4.140625 C 32.238281 -3.566406 33.414062 -3.28125 35 -3.28125 L 35.5 -3.28125 C 36.039062 -3.28125 36.421875 -3.1875 36.640625 -3 C 36.867188 -2.8125 37.007812 -2.332031 37.0625 -1.5625 C 37.0625 -1.070312 36.9375 -0.644531 36.6875 -0.28125 C 36.4375 0.0703125 36.09375 0.25 35.65625 0.25 C 32.15625 0.0820312 28.867188 0 25.796875 0 C 22.566406 0 19.171875 0.0820312 15.609375 0.25 Z M 15.609375 0.25 "/></g></g></g><g fill="rgb(0%, 0%, 0%)" fill-opacity="1"><g transform="translate(54.62121, 286.709304)"><g><path d="M 21.78125 1.640625 C 16.019531 1.640625 11.617188 0.640625 8.578125 -1.359375 C 5.546875 -3.359375 4.03125 -6.300781 4.03125 -10.1875 C 4.03125 -12.15625 4.695312 -13.785156 6.03125 -15.078125 C 7.375 -16.367188 9.113281 -17.015625 11.25 -17.015625 C 12.507812 -16.953125 13.46875 -16.632812 14.125 -16.0625 C 14.789062 -15.488281 15.125 -14.957031 15.125 -14.46875 C 15.125 -14.40625 14.847656 -14.207031 14.296875 -13.875 C 13.742188 -13.550781 13.25 -13.0625 12.8125 -12.40625 C 12.375 -11.75 12.15625 -10.847656 12.15625 -9.703125 C 12.15625 -7.117188 12.9375 -5.128906 14.5 -3.734375 C 16.0625 -2.335938 18.488281 -1.640625 21.78125 -1.640625 C 24.019531 -1.640625 25.988281 -2.078125 27.6875 -2.953125 C 29.382812 -3.828125 30.6875 -4.988281 31.59375 -6.4375 C 32.5 -7.894531 32.953125 -9.421875 32.953125 -11.015625 C 32.953125 -12.984375 32.390625 -14.675781 31.265625 -16.09375 C 30.140625 -17.519531 28.753906 -18.710938 27.109375 -19.671875 C 25.472656 -20.640625 23.226562 -21.753906 20.375 -23.015625 C 17.09375 -24.492188 14.4375 -25.832031 12.40625 -27.03125 C 10.382812 -28.238281 8.660156 -29.84375 7.234375 -31.84375 C 5.804688 -33.84375 5.09375 -36.320312 5.09375 -39.28125 C 5.09375 -44.039062 6.722656 -47.597656 9.984375 -49.953125 C 13.242188 -52.316406 17.53125 -53.5 22.84375 -53.5 C 27.007812 -53.5 30.640625 -52.617188 33.734375 -50.859375 C 36.828125 -49.109375 38.375 -46.535156 38.375 -43.140625 C 38.375 -41.171875 37.703125 -39.539062 36.359375 -38.25 C 35.015625 -36.957031 33.273438 -36.3125 31.140625 -36.3125 C 29.878906 -36.375 28.921875 -36.691406 28.265625 -37.265625 C 27.609375 -37.835938 27.28125 -38.375 27.28125 -38.875 C 27.28125 -38.925781 27.648438 -39.113281 28.390625 -39.4375 C 29.128906 -39.769531 29.785156 -40.265625 30.359375 -40.921875 C 30.929688 -41.578125 31.21875 -42.484375 31.21875 -43.640625 C 31.21875 -45.660156 30.4375 -47.242188 28.875 -48.390625 C 27.320312 -49.546875 25.335938 -50.125 22.921875 -50.125 C 19.578125 -50.125 17.039062 -49.34375 15.3125 -47.78125 C 13.59375 -46.21875 12.734375 -44.285156 12.734375 -41.984375 C 12.734375 -40.066406 13.253906 -38.460938 14.296875 -37.171875 C 15.335938 -35.890625 17.007812 -34.617188 19.3125 -33.359375 C 21.175781 -32.367188 23.203125 -31.382812 25.390625 -30.40625 C 28.898438 -28.8125 31.679688 -27.359375 33.734375 -26.046875 C 35.785156 -24.734375 37.507812 -23.007812 38.90625 -20.875 C 40.300781 -18.738281 41 -16.082031 41 -12.90625 C 41 -10.164062 40.132812 -7.6875 38.40625 -5.46875 C 36.6875 -3.25 34.359375 -1.507812 31.421875 -0.25 C 28.492188 1.007812 25.28125 1.640625 21.78125 1.640625 Z M 21.78125 1.640625 "/></g></g></g><g fill="rgb(0%, 0%, 0%)" fill-opacity="1"><g transform="translate(103.500361, 286.709304)"><g><path d="M 4.9375 0.25 C 4.488281 0.25 4.128906 0.0703125 3.859375 -0.28125 C 3.585938 -0.644531 3.453125 -1.070312 3.453125 -1.5625 C 3.503906 -2.382812 3.679688 -2.875 3.984375 -3.03125 C 4.285156 -3.195312 4.820312 -3.28125 5.59375 -3.28125 C 7.175781 -3.28125 8.347656 -3.566406 9.109375 -4.140625 C 9.878906 -4.722656 10.359375 -5.4375 10.546875 -6.28125 C 10.742188 -7.132812 10.867188 -8.242188 10.921875 -9.609375 L 10.921875 -42.234375 C 10.867188 -43.609375 10.742188 -44.71875 10.546875 -45.5625 C 10.359375 -46.414062 9.878906 -47.128906 9.109375 -47.703125 C 8.347656 -48.273438 7.175781 -48.5625 5.59375 -48.5625 L 5.09375 -48.5625 C 4.539062 -48.5625 4.140625 -48.65625 3.890625 -48.84375 C 3.648438 -49.039062 3.503906 -49.523438 3.453125 -50.296875 C 3.453125 -50.785156 3.585938 -51.207031 3.859375 -51.5625 C 4.128906 -51.914062 4.488281 -52.09375 4.9375 -52.09375 C 8.488281 -51.925781 11.773438 -51.84375 14.796875 -51.84375 L 27.109375 -51.84375 C 31.878906 -51.84375 36.492188 -50.859375 40.953125 -48.890625 C 45.421875 -46.921875 47.65625 -42.976562 47.65625 -37.0625 C 47.65625 -33.769531 46.671875 -30.835938 44.703125 -28.265625 C 42.734375 -25.691406 40.171875 -23.691406 37.015625 -22.265625 C 33.867188 -20.835938 30.597656 -20.125 27.203125 -20.125 C 24.078125 -20.125 21.335938 -20.566406 18.984375 -21.453125 L 18.984375 -9.609375 C 19.035156 -8.242188 19.15625 -7.132812 19.34375 -6.28125 C 19.539062 -5.4375 20.019531 -4.722656 20.78125 -4.140625 C 21.550781 -3.566406 22.734375 -3.28125 24.328125 -3.28125 L 24.8125 -3.28125 C 25.363281 -3.28125 25.757812 -3.1875 26 -3 C 26.25 -2.8125 26.398438 -2.332031 26.453125 -1.5625 C 26.453125 -1.070312 26.328125 -0.644531 26.078125 -0.28125 C 25.835938 0.0703125 25.472656 0.25 24.984375 0.25 C 21.472656 0.0820312 18.046875 0 14.703125 0 C 11.742188 0 8.488281 0.0820312 4.9375 0.25 Z M 24.8125 -23.828125 C 26.789062 -23.828125 28.832031 -24.222656 30.9375 -25.015625 C 33.039062 -25.816406 34.832031 -27.1875 36.3125 -29.125 C 37.789062 -31.070312 38.53125 -33.632812 38.53125 -36.8125 C 38.53125 -41.632812 36.992188 -44.835938 33.921875 -46.421875 C 30.859375 -48.015625 27.601562 -48.8125 24.15625 -48.8125 C 22.726562 -48.8125 21.660156 -48.660156 20.953125 -48.359375 C 20.242188 -48.054688 19.738281 -47.46875 19.4375 -46.59375 C 19.132812 -45.71875 18.984375 -44.347656 18.984375 -42.484375 L 18.984375 -24.734375 C 20.296875 -24.128906 22.238281 -23.828125 24.8125 -23.828125 Z M 24.8125 -23.828125 "/></g></g></g><g fill="rgb(0%, 0%, 0%)" fill-opacity="1"><g transform="translate(157.226219, 286.709304)"><g><path d="M 0.5 0.25 C 0 0.25 -0.367188 0.0703125 -0.609375 -0.28125 C -0.859375 -0.644531 -0.984375 -1.070312 -0.984375 -1.5625 C -0.929688 -2.382812 -0.765625 -2.875 -0.484375 -3.03125 C -0.210938 -3.195312 0.109375 -3.28125 0.484375 -3.28125 C 0.867188 -3.28125 1.117188 -3.28125 1.234375 -3.28125 C 2.878906 -3.28125 4.082031 -3.703125 4.84375 -4.546875 C 5.613281 -5.398438 6.226562 -6.359375 6.6875 -7.421875 C 7.15625 -8.492188 7.472656 -9.222656 7.640625 -9.609375 L 22.015625 -43.640625 C 22.347656 -44.453125 22.515625 -45.109375 22.515625 -45.609375 C 22.515625 -46.585938 22.128906 -47.296875 21.359375 -47.734375 C 20.597656 -48.179688 19.53125 -48.539062 18.15625 -48.8125 C 17.226562 -48.976562 16.65625 -49.140625 16.4375 -49.296875 C 16.21875 -49.460938 16.109375 -49.929688 16.109375 -50.703125 C 16.109375 -51.359375 16.285156 -51.796875 16.640625 -52.015625 C 16.992188 -52.234375 17.554688 -52.34375 18.328125 -52.34375 C 21.066406 -52.34375 23.242188 -52.132812 24.859375 -51.71875 C 26.472656 -51.3125 27.878906 -50.488281 29.078125 -49.25 C 30.285156 -48.019531 31.410156 -46.148438 32.453125 -43.640625 L 46.265625 -9.609375 C 47.085938 -7.523438 47.878906 -5.960938 48.640625 -4.921875 C 49.410156 -3.890625 50.5625 -3.34375 52.09375 -3.28125 L 52.59375 -3.28125 C 53.132812 -3.28125 53.515625 -3.1875 53.734375 -3 C 53.953125 -2.8125 54.09375 -2.332031 54.15625 -1.5625 C 54.15625 -1.070312 54.03125 -0.644531 53.78125 -0.28125 C 53.53125 0.0703125 53.160156 0.25 52.671875 0.25 C 49.160156 0.0820312 46.148438 0 43.640625 0 C 40.347656 0 36.945312 0.0820312 33.4375 0.25 C 32.945312 0.25 32.578125 0.0703125 32.328125 -0.28125 C 32.085938 -0.644531 31.96875 -1.070312 31.96875 -1.5625 C 32.019531 -2.332031 32.15625 -2.8125 32.375 -3 C 32.59375 -3.1875 32.976562 -3.28125 33.53125 -3.28125 C 35.382812 -3.28125 36.695312 -3.457031 37.46875 -3.8125 C 38.238281 -4.175781 38.625 -4.820312 38.625 -5.75 C 38.625 -6.457031 38.296875 -7.742188 37.640625 -9.609375 L 34.84375 -16.4375 L 14.546875 -16.4375 C 13.171875 -13.039062 12.390625 -11.066406 12.203125 -10.515625 C 12.015625 -9.972656 11.921875 -9.671875 11.921875 -9.609375 C 11.253906 -7.523438 10.921875 -6.1875 10.921875 -5.59375 C 10.921875 -4.65625 11.332031 -4.035156 12.15625 -3.734375 C 12.976562 -3.429688 14.539062 -3.28125 16.84375 -3.28125 L 17.34375 -3.28125 C 17.882812 -3.28125 18.265625 -3.1875 18.484375 -3 C 18.703125 -2.8125 18.84375 -2.332031 18.90625 -1.5625 C 18.90625 -1.070312 18.78125 -0.644531 18.53125 -0.28125 C 18.28125 0.0703125 17.910156 0.25 17.421875 0.25 C 13.910156 0.0820312 10.925781 0 8.46875 0 C 6.707031 0 4.050781 0.0820312 0.5 0.25 Z M 16.109375 -19.96875 L 33.359375 -19.96875 L 25.0625 -41.09375 L 24.8125 -41.09375 Z M 16.109375 -19.96875 "/></g></g></g><g fill="rgb(0%, 0%, 0%)" fill-opacity="1"><g transform="translate(214.97733, 286.709304)"><g><path d="M 29.421875 1.640625 C 24.765625 1.640625 20.503906 0.53125 16.640625 -1.6875 C 12.773438 -3.90625 9.707031 -7.066406 7.4375 -11.171875 C 5.164062 -15.285156 4.03125 -20.082031 4.03125 -25.5625 C 4.03125 -31.09375 5.125 -35.96875 7.3125 -40.1875 C 9.5 -44.40625 12.617188 -47.675781 16.671875 -50 C 20.734375 -52.332031 25.472656 -53.5 30.890625 -53.5 C 35.609375 -53.5 39.800781 -52.550781 43.46875 -50.65625 C 47.132812 -48.769531 48.96875 -45.851562 48.96875 -41.90625 C 49.03125 -39.4375 48.289062 -37.335938 46.75 -35.609375 C 45.21875 -33.890625 43.164062 -33.03125 40.59375 -33.03125 C 39.601562 -33.03125 38.765625 -33.207031 38.078125 -33.5625 C 37.398438 -33.914062 36.894531 -34.335938 36.5625 -34.828125 C 36.238281 -35.328125 36.101562 -35.710938 36.15625 -35.984375 C 36.15625 -36.097656 36.535156 -36.398438 37.296875 -36.890625 C 38.066406 -37.390625 38.753906 -38.078125 39.359375 -38.953125 C 39.960938 -39.828125 40.265625 -40.894531 40.265625 -42.15625 C 40.265625 -44.625 39.425781 -46.582031 37.75 -48.03125 C 36.082031 -49.476562 33.769531 -50.203125 30.8125 -50.203125 C 27.46875 -50.203125 24.492188 -49.253906 21.890625 -47.359375 C 19.296875 -45.472656 17.269531 -42.707031 15.8125 -39.0625 C 14.363281 -35.425781 13.640625 -31.085938 13.640625 -26.046875 C 13.640625 -21.660156 14.421875 -17.671875 15.984375 -14.078125 C 17.546875 -10.492188 19.75 -7.648438 22.59375 -5.546875 C 25.445312 -3.441406 28.707031 -2.390625 32.375 -2.390625 C 35.332031 -2.390625 37.863281 -3.003906 39.96875 -4.234375 C 42.082031 -5.460938 43.988281 -7.445312 45.6875 -10.1875 C 45.957031 -10.675781 46.34375 -10.921875 46.84375 -10.921875 C 47.28125 -10.921875 47.769531 -10.757812 48.3125 -10.4375 C 49.1875 -9.832031 49.625 -9.226562 49.625 -8.625 C 49.625 -8.300781 49.515625 -8.03125 49.296875 -7.8125 C 47.222656 -5.175781 45.265625 -3.1875 43.421875 -1.84375 C 41.585938 -0.5 39.601562 0.414062 37.46875 0.90625 C 35.332031 1.394531 32.648438 1.640625 29.421875 1.640625 Z M 29.421875 1.640625 "/></g></g></g><g fill="rgb(0%, 0%, 0%)" fill-opacity="1"><g transform="translate(271.578364, 286.709304)"><g><path d="M 4.9375 0.25 C 4.488281 0.25 4.140625 0.0703125 3.890625 -0.28125 C 3.648438 -0.644531 3.53125 -1.070312 3.53125 -1.5625 C 3.582031 -2.382812 3.742188 -2.875 4.015625 -3.03125 C 4.296875 -3.195312 4.820312 -3.28125 5.59375 -3.28125 C 7.175781 -3.28125 8.347656 -3.566406 9.109375 -4.140625 C 9.878906 -4.722656 10.359375 -5.4375 10.546875 -6.28125 C 10.742188 -7.132812 10.867188 -8.242188 10.921875 -9.609375 L 10.921875 -42.234375 C 10.867188 -43.609375 10.742188 -44.71875 10.546875 -45.5625 C 10.359375 -46.414062 9.878906 -47.128906 9.109375 -47.703125 C 8.347656 -48.273438 7.175781 -48.5625 5.59375 -48.5625 L 5.09375 -48.5625 C 4.539062 -48.5625 4.15625 -48.65625 3.9375 -48.84375 C 3.71875 -49.039062 3.582031 -49.523438 3.53125 -50.296875 C 3.53125 -50.785156 3.648438 -51.207031 3.890625 -51.5625 C 4.140625 -51.914062 4.488281 -52.09375 4.9375 -52.09375 C 8.550781 -51.925781 11.804688 -51.84375 14.703125 -51.84375 L 40.515625 -51.84375 C 41.929688 -51.84375 42.640625 -51.1875 42.640625 -49.875 L 42.890625 -38.375 C 42.890625 -37.882812 42.644531 -37.488281 42.15625 -37.1875 C 41.664062 -36.882812 41.171875 -36.734375 40.671875 -36.734375 C 40.015625 -36.734375 39.4375 -36.851562 38.9375 -37.09375 C 38.445312 -37.34375 38.175781 -37.710938 38.125 -38.203125 C 37.6875 -40.890625 37.207031 -42.929688 36.6875 -44.328125 C 36.164062 -45.722656 35.398438 -46.765625 34.390625 -47.453125 C 33.378906 -48.140625 31.941406 -48.507812 30.078125 -48.5625 L 19.0625 -48.5625 L 19.0625 -27.6875 L 33.9375 -27.6875 C 34.320312 -27.632812 34.625 -27.429688 34.84375 -27.078125 C 35.0625 -26.722656 35.171875 -26.296875 35.171875 -25.796875 C 35.171875 -25.359375 35.0625 -24.972656 34.84375 -24.640625 C 34.625 -24.316406 34.320312 -24.15625 33.9375 -24.15625 L 19.0625 -24.15625 L 19.0625 -8.625 C 19.175781 -7.476562 19.3125 -6.5625 19.46875 -5.875 C 19.632812 -5.1875 20.128906 -4.566406 20.953125 -4.015625 C 21.773438 -3.472656 23.0625 -3.226562 24.8125 -3.28125 L 32.375 -3.28125 C 34.289062 -3.34375 35.738281 -3.660156 36.71875 -4.234375 C 37.707031 -4.804688 38.488281 -5.691406 39.0625 -6.890625 C 39.644531 -8.097656 40.347656 -10.070312 41.171875 -12.8125 C 41.554688 -13.800781 42.488281 -14.1875 43.96875 -13.96875 C 44.507812 -13.863281 44.984375 -13.644531 45.390625 -13.3125 C 45.804688 -12.976562 45.988281 -12.566406 45.9375 -12.078125 L 44.296875 -1.71875 C 44.128906 -1.007812 43.878906 -0.546875 43.546875 -0.328125 C 43.222656 -0.109375 42.675781 0 41.90625 0 L 14.796875 0 C 11.835938 0 8.550781 0.0820312 4.9375 0.25 Z M 4.9375 0.25 "/></g></g></g></svg>